<svg xmlns="http://www.w3.org/2000/svg" data-name="Layer 1" viewBox="0 0 168 168" id="decentralized"><path fill="#2d4356" d="M73.84473 54.24609a2.00079 2.00079 0 0 0 2.79059-.46393l1.36859-1.916v19.334a2 2 0 0 0 4 0v-19.334l1.36871 1.916a2.00027 2.00027 0 0 0 3.25476-2.32611l-4.99609-6.99127a2.00068 2.00068 0 0 0-3.25476 0l-4.99615 6.99127A2.00027 2.00027 0 0 0 73.84473 54.24609zM72.38092 98.958a1.99943 1.99943 0 0 0-2.68359.89258l-5.85944 11.69818-.36871-2.372a1.99984 1.99984 0 1 0-3.95209.61523l1.32959 8.55469a1.99886 1.99886 0 0 0 2.89014 1.4707l7.562-3.88672a1.99951 1.99951 0 1 0-1.82812-3.5567l-2.11823 1.08893 5.9209-11.82129A1.9993 1.9993 0 0 0 72.38092 98.958zM83.6709 117.51459a2.00009 2.00009 0 0 0 .4668 2.78912l6.94189 4.95215a1.99967 1.99967 0 0 0 3.07568-1.04687l2.5097-8.27148a2.00029 2.00029 0 0 0-3.82806-1.16211l-.834 2.75L84.36432 98.16888a2.00006 2.00006 0 1 0-3.7207 1.46881l7.2832 18.45612-1.46594-1.0459A1.9993 1.9993 0 0 0 83.6709 117.51459zM90.15668 75.60938a1.98886 1.98886 0 0 0 .90381-.2168l16.92389-8.5899L106.853 69.0332a1.99983 1.99983 0 1 0 3.56738 1.80859l3.89886-7.6875a1.99976 1.99976 0 0 0-1.435-2.874l-8.3374-1.47656a2.00034 2.00034 0 0 0-.69727 3.93945l2.44342.43262L89.25 71.82617a2 2 0 0 0 .90668 3.7832zM37.29639 96.91406l7.9433 2.98431A1.99991 1.99991 0 0 0 46.647 96.1543l-2.3609-.88672 22.2818-6.59869A2.00024 2.00024 0 0 0 65.43213 84.833L43.26862 91.39648l1.50916-1.99323a2 2 0 0 0-3.18939-2.414L36.40527 93.835a1.99975 1.99975 0 0 0 .89111 3.0791zM117.08112 116.90326a1.99986 1.99986 0 0 0 1.9931 1.86133c.04639 0 .09326-.00189.1402-.00482l11.92377-.82721a2 2 0 0 0 1.708-2.76459L128.415 104.53418a2.00008 2.00008 0 0 0-3.69226 1.539l2.03949 4.89459L92.7124 89.87006A2 2 0 1 0 90.606 93.27051l34.05609 21.10156-5.72412.3974A1.99944 1.99944 0 0 0 117.08112 116.90326zM56.29932 71.86426a1.99983 1.99983 0 1 0 3.56738-1.80859l-1.13092-2.22949L69.5332 73.30566a1.99985 1.99985 0 1 0 1.81061-3.56641l-10.918-5.54108 2.44434-.43262a2.00031 2.00031 0 0 0-.6972-3.93939l-8.33752 1.4765a1.99987 1.99987 0 0 0-1.435 2.87408zM80 77a8 8 0 1 0 8 8A8.00921 8.00921 0 0 0 80 77zm0 12a4 4 0 1 1 4-4A4.00423 4.00423 0 0 1 80 89zM80.00391 40a6 6 0 1 0-6-6A6.0003 6.0003 0 0 0 80.00391 40zm0-8a2 2 0 1 1-2 2A2.00233 2.00233 0 0 1 80.00391 32zM58 123a6 6 0 1 0 6 6A6.00026 6.00026 0 0 0 58 123zm0 8a2 2 0 1 1 2-2A2.00233 2.00233 0 0 1 58 131zM26 105.333a6 6 0 1 0-6-6A6.0003 6.0003 0 0 0 26 105.333zm0-8a2 2 0 1 1-2 2A2.00229 2.00229 0 0 1 26 97.333zM44 63a6 6 0 1 0-6-6A6.0003 6.0003 0 0 0 44 63zm0-8a2 2 0 1 1-2 2A2.00229 2.00229 0 0 1 44 55zM124 63a6 6 0 1 0-6-6A6.0003 6.0003 0 0 0 124 63zm0-8a2 2 0 1 1-2 2A2.00229 2.00229 0 0 1 124 55zM142 127a6 6 0 1 0-6-6A6.0003 6.0003 0 0 0 142 127zm0-8a2 2 0 1 1-2 2A2.00229 2.00229 0 0 1 142 119zM157 14a3 3 0 1 0-3 3A3.00344 3.00344 0 0 0 157 14zm-3 1.5a1.5 1.5 0 1 1 1.5-1.5A1.50148 1.50148 0 0 1 154 15.5zM130 28a3 3 0 1 0-3-3A3.00344 3.00344 0 0 0 130 28zm0-4.5a1.5 1.5 0 1 1-1.5 1.5A1.50148 1.50148 0 0 1 130 23.5zM139 53a2 2 0 1 0-2-2A2.00229 2.00229 0 0 0 139 53zm0-3a1 1 0 1 1-1 1A1.001 1.001 0 0 1 139 50zM108 10a2 2 0 1 0-2-2A2.00229 2.00229 0 0 0 108 10zm0-3a1 1 0 1 1-1 1A1.001 1.001 0 0 1 108 7zM13 64a2 2 0 1 0 2 2A2.00229 2.00229 0 0 0 13 64zm0 3a1 1 0 1 1 1-1A1.001 1.001 0 0 1 13 67z"></path><circle cx="2" cy="139" r="2" fill="#2d4356"></circle><path fill="#2d4356" d="M11 137H8a2 2 0 0 0 0 4h3a2 2 0 0 0 0-4zM160 137h-3a2 2 0 0 0 0 4h3a2 2 0 0 0 0-4z"></path><circle cx="166" cy="139" r="2" fill="#2d4356"></circle><path fill="#2d4356" d="M150.72131,137h-47.5307a6,6,0,1,0-10.38123,0H17.27869a2.017,2.017,0,1,0,0,4H150.72131a2.017,2.017,0,1,0,0-4ZM98,132a2,2,0,1,1-2,2A2.00229,2.00229,0,0,1,98,132Z"></path><polygon fill="#0bceb2" points="21.583 16.011 23.07 14.056 22.131 13.524 21.177 15.714 21.145 15.714 20.175 13.539 19.22 14.087 20.691 15.996 20.691 16.027 18.391 15.73 18.391 16.794 20.707 16.497 20.707 16.528 19.22 18.436 20.112 19 21.13 16.794 21.16 16.794 22.099 18.984 23.085 18.421 21.583 16.543 21.583 16.512 23.945 16.794 23.945 15.73 21.583 16.042 21.583 16.011"></polygon><polygon fill="#0bceb2" points="59.281 31.769 60.137 30.643 59.597 30.337 59.047 31.598 59.029 31.598 58.471 30.345 57.92 30.661 58.768 31.76 58.768 31.778 57.443 31.607 57.443 32.22 58.777 32.049 58.777 32.067 57.92 33.166 58.434 33.49 59.02 32.22 59.038 32.22 59.578 33.481 60.146 33.157 59.281 32.075 59.281 32.057 60.641 32.22 60.641 31.607 59.281 31.787 59.281 31.769"></polygon><polygon fill="#0bceb2" points="47.92 9.166 48.434 9.49 49.02 8.22 49.038 8.22 49.578 9.481 50.146 9.157 49.281 8.075 49.281 8.057 50.641 8.22 50.641 7.607 49.281 7.787 49.281 7.769 50.137 6.643 49.597 6.337 49.047 7.598 49.029 7.598 48.471 6.345 47.92 6.661 48.768 7.76 48.768 7.778 47.443 7.607 47.443 8.22 48.777 8.049 48.777 8.067 47.92 9.166"></polygon><polygon fill="#0bceb2" points="161 63.713 161 62.67 158.683 62.977 158.683 62.946 160.142 61.028 159.221 60.506 158.285 62.654 158.253 62.654 157.302 60.521 156.365 61.059 157.808 62.931 157.808 62.962 155.552 62.67 155.552 63.713 157.823 63.422 157.823 63.453 156.365 65.325 157.24 65.878 158.238 63.713 158.268 63.713 159.189 65.862 160.156 65.31 158.683 63.468 158.683 63.437 161 63.713"></polygon><polygon fill="#0bceb2" points="107.444 37.638 108.198 38.115 109.06 36.248 109.085 36.248 109.88 38.101 110.714 37.625 109.443 36.036 109.443 36.009 111.442 36.248 111.442 35.348 109.443 35.612 109.443 35.586 110.701 33.931 109.907 33.481 109.099 35.334 109.073 35.334 108.252 33.494 107.444 33.958 108.689 35.573 108.689 35.599 106.742 35.348 106.742 36.248 108.702 35.996 108.702 36.023 107.444 37.638"></polygon><path fill="#0bceb2" d="M118.15387 146h-8.30774a2.00641 2.00641 0 0 0 0 4h8.30774a2.00641 2.00641 0 0 0 0-4zM58.15387 146H49.84613a2.00641 2.00641 0 0 0 0 4h8.30774a2.00641 2.00641 0 0 0 0-4zM104 146H64a2 2 0 0 0 0 4H79.94v2H72a2 2 0 0 0 0 4H97a2 2 0 0 0 0-4H88.06v-2H104a2 2 0 0 0 0-4z"></path></svg>