<?xml version="1.0" standalone="no"?><!DOCTYPE svg PUBLIC "-//W3C//DTD SVG 1.1//EN" "http://www.w3.org/Graphics/SVG/1.1/DTD/svg11.dtd"><svg t="1728645269516" class="icon" viewBox="0 0 1101 1024" version="1.1" xmlns="http://www.w3.org/2000/svg" p-id="3043" xmlns:xlink="http://www.w3.org/1999/xlink" width="275.25" height="256"><path d="M26.325873 1002.586734c0-7.401316-5.884759-13.402734-13.156455-13.402734-7.258734 0-13.169418 6.001418-13.169418 13.402734s5.897722 13.402734 13.169418 13.402734c7.258734 0 13.156456-6.001418 13.156455-13.402734zM26.312911 902.908759c0-7.414278-5.884759-13.415696-13.156455-13.415696-7.258734 0-13.156456 6.001418-13.156456 13.415696 0 7.388354 5.897722 13.402734 13.156456 13.402735 7.271696 0 13.169418-6.001418 13.169417-13.402735zM26.312911 803.217823c0-7.401316-5.884759-13.402734-13.156455-13.402734-7.258734 0-13.156456 6.001418-13.156456 13.402734s5.897722 13.402734 13.156456 13.402734c7.271696 0 13.169418-6.001418 13.169417-13.402734zM26.312911 703.526886c0-7.388354-5.884759-13.402734-13.156455-13.402734-7.258734 0-13.156456 6.001418-13.156456 13.402734s5.897722 13.402734 13.156456 13.402734c7.271696 0 13.169418-6.001418 13.169417-13.402734zM26.312911 603.848911c0-7.401316-5.884759-13.402734-13.156455-13.402734-7.258734 0-13.156456 6.001418-13.156456 13.402734s5.897722 13.402734 13.156456 13.402735c7.271696 0 13.169418-6.001418 13.169417-13.402735zM26.312911 511.831494c0-7.401316-5.884759-13.402734-13.156455-13.402735-7.258734 0-13.156456 6.001418-13.156456 13.402735s5.897722 13.402734 13.156456 13.402734c7.271696 0 13.169418-6.001418 13.169417-13.402734zM26.312911 412.140557c0-7.388354-5.884759-13.402734-13.156455-13.402734-7.258734 0-13.156456 6.001418-13.156456 13.402734 0 7.414278 5.897722 13.415696 13.156456 13.415696 7.271696 0 13.169418-6.01438 13.169417-13.415696zM26.312911 312.462582c0-7.401316-5.884759-13.402734-13.156455-13.402734-7.258734 0-13.156456 6.001418-13.156456 13.402734s5.897722 13.402734 13.156456 13.402734c7.271696 0 13.169418-6.001418 13.169417-13.402734zM26.312911 212.771646c0-7.401316-5.884759-13.402734-13.156455-13.402735-7.258734 0-13.156456 6.001418-13.156456 13.402735s5.897722 13.415696 13.156456 13.415696c7.271696 0 13.169418-6.01438 13.169417-13.415696zM26.312911 113.093671c0-7.401316-5.884759-13.402734-13.156455-13.402734C5.897722 99.677975 0 105.692354 0 113.093671s5.897722 13.402734 13.156456 13.402734c7.271696 0 13.169418-6.001418 13.169417-13.402734zM26.312911 13.402734C26.312911 6.01438 20.441114 0 13.169418 0 5.897722 0 0 6.001418 0 13.402734 0 20.817013 5.897722 26.831392 13.156456 26.831392c7.271696 0 13.169418-6.001418 13.169417-13.415696zM124.111392 1002.586734c0-7.401316-5.897722-13.402734-13.169417-13.402734-7.258734 0-13.156456 6.001418-13.156456 13.402734s5.897722 13.402734 13.156456 13.402734c7.271696 0 13.169418-6.001418 13.169417-13.402734zM124.085468 902.908759c0-7.414278-5.884759-13.415696-13.156455-13.415696-7.258734 0-13.169418 6.001418-13.169418 13.415696 0 7.388354 5.897722 13.402734 13.169418 13.402735 7.258734 0 13.156456-6.001418 13.156455-13.402735zM124.085468 803.217823c0-7.401316-5.884759-13.402734-13.156455-13.402734-7.258734 0-13.169418 6.001418-13.169418 13.402734s5.897722 13.402734 13.169418 13.402734c7.258734 0 13.156456-6.001418 13.156455-13.402734zM124.085468 703.526886c0-7.388354-5.884759-13.402734-13.156455-13.402734-7.258734 0-13.169418 6.001418-13.169418 13.402734s5.897722 13.402734 13.169418 13.402734c7.258734 0 13.156456-6.001418 13.156455-13.402734zM124.085468 603.848911c0-7.401316-5.884759-13.402734-13.156455-13.402734-7.258734 0-13.169418 6.001418-13.169418 13.402734s5.897722 13.402734 13.169418 13.402735c7.258734 0 13.156456-6.001418 13.156455-13.402735zM124.085468 511.831494c0-7.401316-5.884759-13.402734-13.156455-13.402735-7.258734 0-13.169418 6.001418-13.169418 13.402735s5.897722 13.402734 13.169418 13.402734c7.258734 0 13.156456-6.001418 13.156455-13.402734zM124.085468 412.140557c0-7.388354-5.884759-13.402734-13.156455-13.402734-7.258734 0-13.169418 6.001418-13.169418 13.402734 0 7.414278 5.897722 13.415696 13.169418 13.415696 7.258734 0 13.156456-6.01438 13.156455-13.415696zM124.085468 312.462582c0-7.401316-5.884759-13.402734-13.156455-13.402734-7.258734 0-13.169418 6.001418-13.169418 13.402734s5.897722 13.402734 13.169418 13.402734c7.258734 0 13.156456-6.001418 13.156455-13.402734zM124.085468 212.771646c0-7.401316-5.884759-13.402734-13.156455-13.402735-7.258734 0-13.169418 6.001418-13.169418 13.402735s5.897722 13.415696 13.169418 13.415696c7.258734 0 13.156456-6.01438 13.156455-13.415696zM124.085468 113.093671c0-7.401316-5.884759-13.402734-13.156455-13.402734-7.258734 0-13.169418 6.001418-13.169418 13.402734s5.897722 13.402734 13.169418 13.402734c7.258734 0 13.156456-6.001418 13.156455-13.402734zM124.085468 13.402734C124.085468 6.01438 118.213671 0 110.929013 0c-7.258734 0-13.169418 6.001418-13.169418 13.402734 0 7.414278 5.897722 13.415696 13.169418 13.415696 7.258734 0 13.156456-6.001418 13.156455-13.415696zM221.870987 1002.586734c0-7.401316-5.897722-13.402734-13.169417-13.402734-7.258734 0-13.156456 6.001418-13.156456 13.402734s5.884759 13.402734 13.156456 13.402734c7.271696 0 13.169418-6.001418 13.169417-13.402734zM221.858025 902.908759c0-7.414278-5.884759-13.415696-13.156455-13.415696-7.271696 0-13.169418 6.001418-13.169418 13.415696 0 7.388354 5.897722 13.402734 13.169418 13.402735 7.258734 0 13.156456-6.001418 13.156455-13.402735zM221.858025 803.217823c0-7.401316-5.884759-13.402734-13.156455-13.402734-7.271696 0-13.169418 6.001418-13.169418 13.402734s5.897722 13.402734 13.169418 13.402734c7.258734 0 13.156456-6.001418 13.156455-13.402734zM221.858025 703.526886c0-7.388354-5.884759-13.402734-13.156455-13.402734-7.271696 0-13.169418 6.001418-13.169418 13.402734s5.897722 13.402734 13.169418 13.402734c7.258734 0 13.156456-6.001418 13.156455-13.402734zM221.858025 603.848911c0-7.401316-5.884759-13.402734-13.156455-13.402734-7.271696 0-13.169418 6.001418-13.169418 13.402734s5.897722 13.402734 13.169418 13.402735c7.258734 0 13.156456-6.001418 13.156455-13.402735zM221.858025 511.831494c0-7.401316-5.884759-13.402734-13.156455-13.402735-7.271696 0-13.169418 6.001418-13.169418 13.402735s5.897722 13.402734 13.169418 13.402734c7.258734 0 13.156456-6.001418 13.156455-13.402734zM221.858025 412.140557c0-7.388354-5.884759-13.402734-13.156455-13.402734-7.271696 0-13.169418 6.001418-13.169418 13.402734 0 7.414278 5.897722 13.415696 13.169418 13.415696 7.258734 0 13.156456-6.01438 13.156455-13.415696zM221.858025 312.462582c0-7.401316-5.884759-13.402734-13.156455-13.402734-7.271696 0-13.169418 6.001418-13.169418 13.402734s5.897722 13.402734 13.169418 13.402734c7.258734 0 13.156456-6.001418 13.156455-13.402734zM221.858025 212.771646c0-7.401316-5.884759-13.402734-13.156455-13.402735-7.271696 0-13.169418 6.001418-13.169418 13.402735s5.897722 13.415696 13.169418 13.415696c7.258734 0 13.156456-6.01438 13.156455-13.415696zM221.858025 113.093671c0-7.401316-5.884759-13.402734-13.156455-13.402734-7.271696 0-13.169418 6.001418-13.169418 13.402734s5.897722 13.402734 13.169418 13.402734c7.258734 0 13.156456-6.001418 13.156455-13.402734zM221.858025 13.402734c0-7.388354-5.884759-13.402734-13.156455-13.402734-7.271696 0-13.169418 6.001418-13.169418 13.402734 0 7.414278 5.897722 13.415696 13.169418 13.415696 7.258734 0 13.156456-6.001418 13.156455-13.415696zM319.630582 1002.586734c0-7.401316-5.897722-13.402734-13.169417-13.402734-7.258734 0-13.156456 6.001418-13.156456 13.402734s5.884759 13.402734 13.156456 13.402734c7.271696 0 13.169418-6.001418 13.169417-13.402734zM319.630582 902.908759c0-7.414278-5.897722-13.415696-13.169417-13.415696-7.258734 0-13.156456 6.001418-13.156456 13.415696 0 7.388354 5.884759 13.402734 13.156456 13.402735 7.271696 0 13.169418-6.001418 13.169417-13.402735zM319.630582 803.217823c0-7.401316-5.897722-13.402734-13.169417-13.402734-7.258734 0-13.156456 6.001418-13.156456 13.402734s5.884759 13.402734 13.156456 13.402734c7.271696 0 13.169418-6.001418 13.169417-13.402734zM319.630582 703.526886c0-7.388354-5.897722-13.402734-13.169417-13.402734-7.258734 0-13.156456 6.001418-13.156456 13.402734s5.884759 13.402734 13.156456 13.402734c7.271696 0 13.169418-6.001418 13.169417-13.402734zM319.630582 603.848911c0-7.401316-5.897722-13.402734-13.169417-13.402734-7.258734 0-13.156456 6.001418-13.156456 13.402734s5.884759 13.402734 13.156456 13.402735c7.271696 0 13.169418-6.001418 13.169417-13.402735zM319.630582 511.831494c0-7.401316-5.897722-13.402734-13.169417-13.402735-7.258734 0-13.156456 6.001418-13.156456 13.402735s5.884759 13.402734 13.156456 13.402734c7.271696 0 13.169418-6.001418 13.169417-13.402734zM319.630582 412.140557c0-7.388354-5.897722-13.402734-13.169417-13.402734-7.258734 0-13.156456 6.001418-13.156456 13.402734 0 7.414278 5.884759 13.415696 13.156456 13.415696 7.271696 0 13.169418-6.01438 13.169417-13.415696zM319.630582 312.462582c0-7.401316-5.897722-13.402734-13.169417-13.402734-7.258734 0-13.156456 6.001418-13.156456 13.402734s5.884759 13.402734 13.156456 13.402734c7.271696 0 13.169418-6.001418 13.169417-13.402734zM319.630582 212.771646c0-7.401316-5.897722-13.402734-13.169417-13.402735-7.258734 0-13.156456 6.001418-13.156456 13.402735s5.884759 13.415696 13.156456 13.415696c7.271696 0 13.169418-6.01438 13.169417-13.415696zM319.630582 113.093671c0-7.401316-5.897722-13.402734-13.169417-13.402734-7.258734 0-13.156456 6.001418-13.156456 13.402734s5.884759 13.402734 13.156456 13.402734c7.271696 0 13.169418-6.001418 13.169417-13.402734zM319.630582 13.402734c0-7.388354-5.897722-13.402734-13.169417-13.402734-7.258734 0-13.156456 6.001418-13.156456 13.402734 0 7.414278 5.884759 13.415696 13.156456 13.415696 7.271696 0 13.169418-6.001418 13.169417-13.415696zM417.390177 1002.586734c0-7.401316-5.884759-13.402734-13.156455-13.402734-7.271696 0-13.169418 6.001418-13.169418 13.402734s5.897722 13.402734 13.169418 13.402734c7.258734 0 13.156456-6.001418 13.156455-13.402734zM417.390177 902.908759c0-7.414278-5.884759-13.415696-13.156455-13.415696-7.271696 0-13.169418 6.001418-13.169418 13.415696 0 7.388354 5.897722 13.402734 13.169418 13.402735 7.258734 0 13.156456-6.001418 13.156455-13.402735zM417.390177 803.217823c0-7.401316-5.884759-13.402734-13.156455-13.402734-7.271696 0-13.169418 6.001418-13.169418 13.402734s5.897722 13.402734 13.169418 13.402734c7.258734 0 13.156456-6.001418 13.156455-13.402734zM417.390177 703.526886c0-7.388354-5.884759-13.402734-13.156455-13.402734-7.271696 0-13.169418 6.001418-13.169418 13.402734s5.897722 13.402734 13.169418 13.402734c7.258734 0 13.156456-6.001418 13.156455-13.402734zM417.390177 603.848911c0-7.401316-5.884759-13.402734-13.156455-13.402734-7.271696 0-13.169418 6.001418-13.169418 13.402734s5.897722 13.402734 13.169418 13.402735c7.258734 0 13.156456-6.001418 13.156455-13.402735zM417.390177 511.831494c0-7.401316-5.884759-13.402734-13.156455-13.402735-7.271696 0-13.169418 6.001418-13.169418 13.402735s5.897722 13.402734 13.169418 13.402734c7.258734 0 13.156456-6.001418 13.156455-13.402734zM417.390177 412.140557c0-7.388354-5.884759-13.402734-13.156455-13.402734-7.271696 0-13.169418 6.001418-13.169418 13.402734 0 7.414278 5.897722 13.415696 13.169418 13.415696 7.258734 0 13.156456-6.01438 13.156455-13.415696zM417.390177 312.462582c0-7.401316-5.884759-13.402734-13.156455-13.402734-7.271696 0-13.169418 6.001418-13.169418 13.402734s5.897722 13.402734 13.169418 13.402734c7.258734 0 13.156456-6.001418 13.156455-13.402734zM417.390177 212.771646c0-7.401316-5.884759-13.402734-13.156455-13.402735-7.271696 0-13.169418 6.001418-13.169418 13.402735s5.897722 13.415696 13.169418 13.415696c7.258734 0 13.156456-6.01438 13.156455-13.415696zM417.390177 113.093671c0-7.401316-5.884759-13.402734-13.156455-13.402734-7.271696 0-13.169418 6.001418-13.169418 13.402734s5.897722 13.402734 13.169418 13.402734c7.258734 0 13.156456-6.001418 13.156455-13.402734zM417.390177 13.402734c0-7.388354-5.884759-13.402734-13.156455-13.402734-7.271696 0-13.169418 6.001418-13.169418 13.402734 0 7.414278 5.897722 13.415696 13.169418 13.415696 7.258734 0 13.156456-6.001418 13.156455-13.415696zM515.162734 1002.586734c0-7.401316-5.897722-13.402734-13.156456-13.402734-7.271696 0-13.169418 6.001418-13.169417 13.402734s5.897722 13.402734 13.169417 13.402734c7.258734 0 13.156456-6.001418 13.156456-13.402734zM515.162734 902.908759c0-7.414278-5.897722-13.415696-13.169418-13.415696-7.258734 0-13.156456 6.001418-13.156455 13.415696 0 7.388354 5.884759 13.402734 13.156455 13.402735 7.271696 0 13.169418-6.001418 13.169418-13.402735zM515.162734 803.217823c0-7.401316-5.897722-13.402734-13.169418-13.402734-7.258734 0-13.156456 6.001418-13.156455 13.402734s5.884759 13.402734 13.156455 13.402734c7.271696 0 13.169418-6.001418 13.169418-13.402734zM515.162734 703.526886c0-7.388354-5.897722-13.402734-13.169418-13.402734-7.258734 0-13.156456 6.001418-13.156455 13.402734s5.884759 13.402734 13.156455 13.402734c7.271696 0 13.169418-6.001418 13.169418-13.402734zM515.162734 603.848911c0-7.401316-5.897722-13.402734-13.169418-13.402734-7.258734 0-13.156456 6.001418-13.156455 13.402734s5.884759 13.402734 13.156455 13.402735c7.271696 0 13.169418-6.001418 13.169418-13.402735zM515.162734 511.831494c0-7.401316-5.897722-13.402734-13.169418-13.402735-7.258734 0-13.156456 6.001418-13.156455 13.402735s5.884759 13.402734 13.156455 13.402734c7.271696 0 13.169418-6.001418 13.169418-13.402734zM515.162734 412.140557c0-7.388354-5.897722-13.402734-13.169418-13.402734-7.258734 0-13.156456 6.001418-13.156455 13.402734 0 7.414278 5.884759 13.415696 13.156455 13.415696 7.271696 0 13.169418-6.01438 13.169418-13.415696zM515.162734 312.462582c0-7.401316-5.897722-13.402734-13.169418-13.402734-7.258734 0-13.156456 6.001418-13.156455 13.402734s5.884759 13.402734 13.156455 13.402734c7.271696 0 13.169418-6.001418 13.169418-13.402734zM515.162734 212.771646c0-7.401316-5.897722-13.402734-13.169418-13.402735-7.258734 0-13.156456 6.001418-13.156455 13.402735s5.884759 13.415696 13.156455 13.415696c7.271696 0 13.169418-6.01438 13.169418-13.415696zM515.162734 113.093671c0-7.401316-5.897722-13.402734-13.169418-13.402734-7.258734 0-13.156456 6.001418-13.156455 13.402734s5.884759 13.402734 13.156455 13.402734c7.271696 0 13.169418-6.001418 13.169418-13.402734zM515.162734 13.402734c0-7.388354-5.897722-13.402734-13.169418-13.402734-7.258734 0-13.156456 6.001418-13.156455 13.402734 0 7.414278 5.884759 13.415696 13.156455 13.415696 7.271696 0 13.169418-6.001418 13.169418-13.415696zM612.948253 1002.586734c0-7.401316-5.897722-13.402734-13.156456-13.402734-7.271696 0-13.169418 6.001418-13.169417 13.402734s5.897722 13.402734 13.169417 13.402734c7.258734 0 13.156456-6.001418 13.156456-13.402734zM612.935291 902.908759c0-7.414278-5.884759-13.415696-13.156456-13.415696-7.271696 0-13.169418 6.001418-13.169417 13.415696 0 7.388354 5.897722 13.402734 13.169417 13.402735 7.258734 0 13.156456-6.001418 13.156456-13.402735zM612.935291 803.217823c0-7.401316-5.884759-13.402734-13.156456-13.402734-7.271696 0-13.169418 6.001418-13.169417 13.402734s5.897722 13.402734 13.169417 13.402734c7.258734 0 13.156456-6.001418 13.156456-13.402734zM612.935291 703.526886c0-7.388354-5.884759-13.402734-13.156456-13.402734-7.271696 0-13.169418 6.001418-13.169417 13.402734s5.897722 13.402734 13.169417 13.402734c7.258734 0 13.156456-6.001418 13.156456-13.402734zM612.935291 603.848911c0-7.401316-5.884759-13.402734-13.156456-13.402734-7.271696 0-13.169418 6.001418-13.169417 13.402734s5.897722 13.402734 13.169417 13.402735c7.258734 0 13.156456-6.001418 13.156456-13.402735zM612.935291 511.831494c0-7.401316-5.884759-13.402734-13.156456-13.402735-7.271696 0-13.169418 6.001418-13.169417 13.402735s5.897722 13.402734 13.169417 13.402734c7.258734 0 13.156456-6.001418 13.156456-13.402734zM612.935291 412.140557c0-7.388354-5.884759-13.402734-13.156456-13.402734-7.271696 0-13.169418 6.001418-13.169417 13.402734 0 7.414278 5.897722 13.415696 13.169417 13.415696 7.258734 0 13.156456-6.01438 13.156456-13.415696zM612.935291 312.462582c0-7.401316-5.884759-13.402734-13.156456-13.402734-7.271696 0-13.169418 6.001418-13.169417 13.402734s5.897722 13.402734 13.169417 13.402734c7.258734 0 13.156456-6.001418 13.156456-13.402734zM612.935291 212.771646c0-7.401316-5.884759-13.402734-13.156456-13.402735-7.271696 0-13.169418 6.001418-13.169417 13.402735s5.897722 13.415696 13.169417 13.415696c7.258734 0 13.156456-6.01438 13.156456-13.415696zM612.935291 113.093671c0-7.401316-5.884759-13.402734-13.156456-13.402734-7.271696 0-13.169418 6.001418-13.169417 13.402734s5.897722 13.402734 13.169417 13.402734c7.258734 0 13.156456-6.001418 13.156456-13.402734zM612.935291 13.402734c0-7.388354-5.884759-13.402734-13.156456-13.402734-7.271696 0-13.169418 6.001418-13.169417 13.402734 0 7.414278 5.897722 13.415696 13.169417 13.415696 7.258734 0 13.156456-6.001418 13.156456-13.415696zM710.707848 1002.586734c0-7.401316-5.910684-13.402734-13.169418-13.402734-7.271696 0-13.169418 6.001418-13.169417 13.402734s5.897722 13.402734 13.169417 13.402734c7.258734 0 13.156456-6.001418 13.156456-13.402734zM710.707848 902.908759c0-7.414278-5.910684-13.415696-13.169418-13.415696-7.271696 0-13.169418 6.001418-13.169417 13.415696 0 7.388354 5.897722 13.402734 13.169417 13.402735 7.258734 0 13.156456-6.001418 13.156456-13.402735zM710.707848 803.217823c0-7.401316-5.910684-13.402734-13.169418-13.402734-7.271696 0-13.169418 6.001418-13.169417 13.402734s5.897722 13.402734 13.169417 13.402734c7.258734 0 13.156456-6.001418 13.156456-13.402734zM710.707848 703.526886c0-7.388354-5.910684-13.402734-13.169418-13.402734-7.271696 0-13.169418 6.001418-13.169417 13.402734s5.897722 13.402734 13.169417 13.402734c7.258734 0 13.156456-6.001418 13.156456-13.402734zM710.707848 603.848911c0-7.401316-5.910684-13.402734-13.169418-13.402734-7.271696 0-13.169418 6.001418-13.169417 13.402734s5.897722 13.402734 13.169417 13.402735c7.258734 0 13.156456-6.001418 13.156456-13.402735zM710.707848 511.831494c0-7.401316-5.910684-13.402734-13.169418-13.402735-7.271696 0-13.169418 6.001418-13.169417 13.402735s5.897722 13.402734 13.169417 13.402734c7.258734 0 13.156456-6.001418 13.156456-13.402734zM710.707848 412.140557c0-7.388354-5.910684-13.402734-13.169418-13.402734-7.271696 0-13.169418 6.001418-13.169417 13.402734 0 7.414278 5.897722 13.415696 13.169417 13.415696 7.258734 0 13.156456-6.01438 13.156456-13.415696zM710.707848 312.462582c0-7.401316-5.910684-13.402734-13.169418-13.402734-7.271696 0-13.169418 6.001418-13.169417 13.402734s5.897722 13.402734 13.169417 13.402734c7.258734 0 13.156456-6.001418 13.156456-13.402734zM710.707848 212.771646c0-7.401316-5.910684-13.402734-13.169418-13.402735-7.271696 0-13.169418 6.001418-13.169417 13.402735s5.897722 13.415696 13.169417 13.415696c7.258734 0 13.156456-6.01438 13.156456-13.415696zM710.707848 113.093671c0-7.401316-5.910684-13.402734-13.169418-13.402734-7.271696 0-13.169418 6.001418-13.169417 13.402734s5.897722 13.402734 13.169417 13.402734c7.258734 0 13.156456-6.001418 13.156456-13.402734zM710.707848 13.402734C710.707848 6.01438 704.784203 0 697.525468 0c-7.271696 0-13.169418 6.001418-13.169417 13.402734 0 7.414278 5.897722 13.415696 13.169417 13.415696 7.258734 0 13.156456-6.001418 13.156456-13.415696zM808.454481 1002.586734c0-7.401316-5.884759-13.402734-13.156456-13.402734-7.258734 0-13.156456 6.001418-13.156455 13.402734s5.884759 13.402734 13.156455 13.402734c7.258734 0 13.156456-6.001418 13.156456-13.402734zM808.454481 902.908759c0-7.414278-5.884759-13.415696-13.156456-13.415696-7.258734 0-13.156456 6.001418-13.156455 13.415696 0 7.388354 5.884759 13.402734 13.156455 13.402735 7.258734 0 13.156456-6.001418 13.156456-13.402735zM808.454481 803.217823c0-7.401316-5.884759-13.402734-13.156456-13.402734-7.258734 0-13.156456 6.001418-13.156455 13.402734s5.884759 13.402734 13.156455 13.402734c7.258734 0 13.156456-6.001418 13.156456-13.402734zM808.454481 703.526886c0-7.388354-5.884759-13.402734-13.156456-13.402734-7.258734 0-13.156456 6.001418-13.156455 13.402734s5.884759 13.402734 13.156455 13.402734c7.258734 0 13.156456-6.001418 13.156456-13.402734zM808.454481 603.848911c0-7.401316-5.884759-13.402734-13.156456-13.402734-7.258734 0-13.156456 6.001418-13.156455 13.402734s5.884759 13.402734 13.156455 13.402735c7.258734 0 13.156456-6.001418 13.156456-13.402735zM808.454481 511.831494c0-7.401316-5.884759-13.402734-13.156456-13.402735-7.258734 0-13.156456 6.001418-13.156455 13.402735s5.884759 13.402734 13.156455 13.402734c7.258734 0 13.156456-6.001418 13.156456-13.402734zM808.454481 412.140557c0-7.388354-5.884759-13.402734-13.156456-13.402734-7.258734 0-13.156456 6.001418-13.156455 13.402734 0 7.414278 5.884759 13.415696 13.156455 13.415696 7.258734 0 13.156456-6.01438 13.156456-13.415696zM808.454481 312.462582c0-7.401316-5.884759-13.402734-13.156456-13.402734-7.258734 0-13.156456 6.001418-13.156455 13.402734s5.884759 13.402734 13.156455 13.402734c7.258734 0 13.156456-6.001418 13.156456-13.402734zM808.454481 212.771646c0-7.401316-5.884759-13.402734-13.156456-13.402735-7.258734 0-13.156456 6.001418-13.156455 13.402735s5.884759 13.415696 13.156455 13.415696c7.258734 0 13.156456-6.01438 13.156456-13.415696zM808.454481 113.093671c0-7.401316-5.884759-13.402734-13.156456-13.402734-7.258734 0-13.156456 6.001418-13.156455 13.402734s5.884759 13.402734 13.156455 13.402734c7.258734 0 13.156456-6.001418 13.156456-13.402734zM808.454481 13.402734c0-7.388354-5.884759-13.402734-13.156456-13.402734-7.258734 0-13.156456 6.001418-13.156455 13.402734 0 7.414278 5.884759 13.415696 13.156455 13.415696 7.258734 0 13.156456-6.001418 13.156456-13.415696zM906.227038 1002.586734c0-7.401316-5.897722-13.402734-13.156456-13.402734-7.271696 0-13.169418 6.001418-13.169417 13.402734s5.897722 13.402734 13.169417 13.402734c7.258734 0 13.156456-6.001418 13.156456-13.402734zM906.227038 902.908759c0-7.414278-5.897722-13.415696-13.156456-13.415696-7.271696 0-13.169418 6.001418-13.169417 13.415696 0 7.388354 5.897722 13.402734 13.169417 13.402735 7.258734 0 13.156456-6.001418 13.156456-13.402735zM906.227038 803.217823c0-7.401316-5.897722-13.402734-13.156456-13.402734-7.271696 0-13.169418 6.001418-13.169417 13.402734s5.897722 13.402734 13.169417 13.402734c7.258734 0 13.156456-6.001418 13.156456-13.402734zM906.227038 703.526886c0-7.388354-5.897722-13.402734-13.156456-13.402734-7.271696 0-13.169418 6.001418-13.169417 13.402734s5.897722 13.402734 13.169417 13.402734c7.258734 0 13.156456-6.001418 13.156456-13.402734zM906.227038 603.848911c0-7.401316-5.897722-13.402734-13.156456-13.402734-7.271696 0-13.169418 6.001418-13.169417 13.402734s5.897722 13.402734 13.169417 13.402735c7.258734 0 13.156456-6.001418 13.156456-13.402735zM906.227038 511.831494c0-7.401316-5.897722-13.402734-13.156456-13.402735-7.271696 0-13.169418 6.001418-13.169417 13.402735s5.897722 13.402734 13.169417 13.402734c7.258734 0 13.156456-6.001418 13.156456-13.402734zM906.227038 412.140557c0-7.388354-5.897722-13.402734-13.156456-13.402734-7.271696 0-13.169418 6.001418-13.169417 13.402734 0 7.414278 5.897722 13.415696 13.169417 13.415696 7.258734 0 13.156456-6.01438 13.156456-13.415696zM906.227038 312.462582c0-7.401316-5.897722-13.402734-13.156456-13.402734-7.271696 0-13.169418 6.001418-13.169417 13.402734s5.897722 13.402734 13.169417 13.402734c7.258734 0 13.156456-6.001418 13.156456-13.402734zM906.227038 212.771646c0-7.401316-5.897722-13.402734-13.156456-13.402735-7.271696 0-13.169418 6.001418-13.169417 13.402735s5.897722 13.415696 13.169417 13.415696c7.258734 0 13.156456-6.01438 13.156456-13.415696zM906.227038 113.093671c0-7.401316-5.897722-13.402734-13.156456-13.402734-7.271696 0-13.169418 6.001418-13.169417 13.402734s5.897722 13.402734 13.169417 13.402734c7.258734 0 13.156456-6.001418 13.156456-13.402734zM906.227038 13.402734c0-7.388354-5.897722-13.402734-13.156456-13.402734-7.271696 0-13.169418 6.001418-13.169417 13.402734 0 7.414278 5.897722 13.415696 13.169417 13.415696 7.258734 0 13.156456-6.001418 13.156456-13.415696zM1003.999595 1002.586734c0-7.401316-5.884759-13.402734-13.156456-13.402734-7.258734 0-13.156456 6.001418-13.156455 13.402734s5.884759 13.402734 13.156455 13.402734c7.258734 0 13.169418-6.001418 13.169418-13.402734zM1003.999595 902.908759c0-7.414278-5.884759-13.415696-13.156456-13.415696-7.258734 0-13.156456 6.001418-13.156455 13.415696 0 7.388354 5.884759 13.402734 13.156455 13.402735 7.258734 0 13.169418-6.001418 13.169418-13.402735zM1003.999595 803.217823c0-7.401316-5.884759-13.402734-13.156456-13.402734-7.258734 0-13.156456 6.001418-13.156455 13.402734s5.884759 13.402734 13.156455 13.402734c7.258734 0 13.169418-6.001418 13.169418-13.402734zM1003.999595 703.526886c0-7.388354-5.884759-13.402734-13.156456-13.402734-7.258734 0-13.156456 6.001418-13.156455 13.402734s5.884759 13.402734 13.156455 13.402734c7.258734 0 13.169418-6.001418 13.169418-13.402734zM1003.999595 603.848911c0-7.401316-5.884759-13.402734-13.156456-13.402734-7.258734 0-13.156456 6.001418-13.156455 13.402734s5.884759 13.402734 13.156455 13.402735c7.258734 0 13.169418-6.001418 13.169418-13.402735zM1003.999595 511.831494c0-7.401316-5.884759-13.402734-13.156456-13.402735-7.258734 0-13.156456 6.001418-13.156455 13.402735s5.884759 13.402734 13.156455 13.402734c7.258734 0 13.169418-6.001418 13.169418-13.402734zM1003.999595 412.140557c0-7.388354-5.884759-13.402734-13.156456-13.402734-7.258734 0-13.156456 6.001418-13.156455 13.402734 0 7.414278 5.884759 13.415696 13.156455 13.415696 7.258734 0 13.169418-6.01438 13.169418-13.415696zM1003.999595 312.462582c0-7.401316-5.884759-13.402734-13.156456-13.402734-7.258734 0-13.156456 6.001418-13.156455 13.402734s5.884759 13.402734 13.156455 13.402734c7.258734 0 13.169418-6.001418 13.169418-13.402734zM1003.999595 212.771646c0-7.401316-5.884759-13.402734-13.156456-13.402735-7.258734 0-13.156456 6.001418-13.156455 13.402735s5.884759 13.415696 13.156455 13.415696c7.258734 0 13.169418-6.01438 13.169418-13.415696zM1003.999595 113.093671c0-7.401316-5.884759-13.402734-13.156456-13.402734-7.258734 0-13.156456 6.001418-13.156455 13.402734s5.884759 13.402734 13.156455 13.402734c7.258734 0 13.169418-6.001418 13.169418-13.402734zM1003.999595 13.402734c0-7.388354-5.884759-13.402734-13.156456-13.402734-7.258734 0-13.156456 6.001418-13.156455 13.402734 0 7.414278 5.884759 13.415696 13.156455 13.415696 7.258734 0 13.169418-6.001418 13.169418-13.415696zM1101.772152 1002.586734c0-7.401316-5.897722-13.402734-13.156456-13.402734-7.271696 0-13.169418 6.001418-13.169418 13.402734s5.897722 13.402734 13.169418 13.402734c7.258734 0 13.156456-6.001418 13.156456-13.402734zM1101.772152 902.908759c0-7.414278-5.897722-13.415696-13.156456-13.415696-7.271696 0-13.169418 6.001418-13.169418 13.415696 0 7.388354 5.897722 13.402734 13.169418 13.402735 7.258734 0 13.156456-6.001418 13.156456-13.402735zM1101.772152 803.217823c0-7.401316-5.897722-13.402734-13.156456-13.402734-7.271696 0-13.169418 6.001418-13.169418 13.402734s5.897722 13.402734 13.169418 13.402734c7.258734 0 13.156456-6.001418 13.156456-13.402734zM1101.772152 703.526886c0-7.388354-5.897722-13.402734-13.156456-13.402734-7.271696 0-13.169418 6.001418-13.169418 13.402734s5.897722 13.402734 13.169418 13.402734c7.258734 0 13.156456-6.001418 13.156456-13.402734zM1101.772152 603.848911c0-7.401316-5.897722-13.402734-13.156456-13.402734-7.271696 0-13.169418 6.001418-13.169418 13.402734s5.897722 13.402734 13.169418 13.402735c7.258734 0 13.156456-6.001418 13.156456-13.402735zM1101.772152 511.831494c0-7.401316-5.897722-13.402734-13.156456-13.402735-7.271696 0-13.169418 6.001418-13.169418 13.402735s5.897722 13.402734 13.169418 13.402734c7.258734 0 13.156456-6.001418 13.156456-13.402734zM1101.772152 412.140557c0-7.388354-5.897722-13.402734-13.156456-13.402734-7.271696 0-13.169418 6.001418-13.169418 13.402734 0 7.414278 5.897722 13.415696 13.169418 13.415696 7.258734 0 13.156456-6.01438 13.156456-13.415696zM1101.772152 312.462582c0-7.401316-5.897722-13.402734-13.156456-13.402734-7.271696 0-13.169418 6.001418-13.169418 13.402734s5.897722 13.402734 13.169418 13.402734c7.258734 0 13.156456-6.001418 13.156456-13.402734zM1101.772152 212.771646c0-7.401316-5.897722-13.402734-13.156456-13.402735-7.271696 0-13.169418 6.001418-13.169418 13.402735s5.897722 13.415696 13.169418 13.415696c7.258734 0 13.156456-6.01438 13.156456-13.415696zM1101.772152 113.093671c0-7.401316-5.897722-13.402734-13.156456-13.402734-7.271696 0-13.169418 6.001418-13.169418 13.402734s5.897722 13.402734 13.169418 13.402734c7.258734 0 13.156456-6.001418 13.156456-13.402734zM1101.772152 13.402734C1101.772152 6.01438 1095.87443 0 1088.615696 0c-7.271696 0-13.169418 6.001418-13.169418 13.402734 0 7.414278 5.897722 13.415696 13.169418 13.415696 7.258734 0 13.156456-6.001418 13.156456-13.415696z" fill="#4E83FD" p-id="3044"></path></svg>